<?xml version="1.0" encoding="UTF-8"?>
<svg width="12px" height="14px" viewBox="0 0 12 14" version="1.1" xmlns="http://www.w3.org/2000/svg" xmlns:xlink="http://www.w3.org/1999/xlink">
    <!-- Generator: Sketch 60 (88103) - https://sketch.com -->
    <!-- <title>icons/24x24/ico_plane copy 3</title> -->
    <desc>Created with Sketch.</desc>
    <g id="DCP-Manage-Rides" stroke="none" stroke-width="1" fill="none" fill-rule="evenodd">
        <g id="Desktop-HD" transform="translate(-544.000000, -405.000000)" fill="#ff5f00" fill-rule="nonzero">
            <g id="icons/24x24/ico_pins" transform="translate(542.000000, 404.000000)">
                <path d="M10.0002,5.3334 L3.33353333,5.3334 L3.33353333,12.0000667 L5.87555372,12.0000667 L6.66671942,12.7907382 L7.45739096,12.0000667 L10.0002,12.0000667 L10.0002,5.3334 Z M2.0002,13.3334 L2.0002,4.00006667 L11.3335333,4.00006667 L11.3335333,13.3334 L8.00967571,13.3334 L6.66701391,14.6760618 L5.32351295,13.3334 L2.0002,13.3334 Z M12.6668667,2.66673333 L6.66686667,2.66673333 L6.66686667,1.3334 L14.0002,1.3334 L14.0002,8.66673333 L12.6668667,8.66673333 L12.6668667,2.66673333 Z M5.51133333,9.82266667 L5.51133333,7.51133333 L7.82266667,7.51133333 L7.82266667,9.82266667 L5.51133333,9.82266667 Z" id="shape"></path>
            </g>
        </g>
    </g>
</svg>