<?xml version="1.0" encoding="UTF-8"?>
<svg width="20px" height="20px" viewBox="0 0 20 20" version="1.1" xmlns="http://www.w3.org/2000/svg" xmlns:xlink="http://www.w3.org/1999/xlink">
    <!-- Generator: sketchtool 62 (101010) - https://sketch.com -->
    <!-- <title>630048C7-A6FD-46F8-B1A9-3019D47768F7</title> -->
    <desc>Created with sketchtool.</desc>
    <g id="Asset-Artboard-Page" stroke="none" stroke-width="1" fill="none" fill-rule="evenodd">
        <g id="icons/24x24/ico_magnifier-icons/24x24/ico_car" transform="translate(0.400000, 0.000000)" fill="#191919" fill-rule="nonzero">
            <path d="M3.20008005,12.0000005 L3.20008005,14.4000006 L4.80000011,14.4000006 L4.80000011,12.8000005 L14.4000005,12.8000005 L14.4000005,14.4000006 L16.0000806,14.4000006 L16.0000806,12.0000005 L13.6000005,12.0000005 L13.6000005,10.4000004 L16.0000806,10.4000004 L16.0000806,9.86106463 L15.6000005,9.60000038 L3.60000006,9.60000038 L3.20008005,9.86106463 L3.20008005,10.4000004 L5.60000014,10.4000004 L5.60000014,12.0000005 L3.20008005,12.0000005 Z M4.96000024,8.00000032 L14.2400009,8.00000032 L13.3191795,5.60000022 L5.8809816,5.60000022 L4.96000024,8.00000032 Z M6.40000017,14.4000006 L6.40000017,16.0000002 L1.60007998,16.0000002 L1.60007998,9.00789611 L3.35852554,7.82786311 L4.90317882,4.00000016 L14.2969818,4.00000016 L15.8416351,7.82786311 L17.60008,9.00789611 L17.60008,16.0000002 L12.8000004,16.0000002 L12.8000004,14.4000006 L6.40000017,14.4000006 Z M7.2000001,12.0000005 L7.2000001,10.4000004 L12.0000003,10.4000004 L12.0000003,12.0000005 L7.2000001,12.0000005 Z" id="shape"></path>
        </g>
    </g>
</svg>