<?xml version="1.0" encoding="UTF-8"?>
<svg width="17px" height="16px" viewBox="0 0 17 16" version="1.1" xmlns="http://www.w3.org/2000/svg" xmlns:xlink="http://www.w3.org/1999/xlink">
    <!-- Generator: sketchtool 62 (101010) - https://sketch.com -->
    <!-- <title>EDF7DBD2-D11F-4D63-8DBA-B390AA8021FC</title> -->
    <desc>Created with sketchtool.</desc>
    <g id="Asset-Artboard-Page" stroke="none" stroke-width="1" fill="none" fill-rule="evenodd">
        <g id="icons/24x24/ico_plane-copy-icons/24x24/ico_speech_bubble" transform="translate(0.800000, 0.000000)" fill="#191919" fill-rule="nonzero">
            <path d="M1.33333333,13.3330664 L1.33333333,1.99973329 L14.6666667,1.99973329 L14.6666667,13.3330664 L7.60947571,13.3330664 L6,14.9425421 L4.39052429,13.3330664 L1.33333333,13.3330664 Z M2.66666667,11.9997335 L4.94280904,11.9997335 L6,13.0569245 L7.05719096,11.9997335 L13.3333333,11.9997335 L13.3333333,3.33306662 L2.66666667,3.33306662 L2.66666667,11.9997335 Z M6,7.33333302 L6,8.66666635 L4.66666667,8.66666635 L4.66666667,7.33333302 L6,7.33333302 Z M8.66666667,7.33333302 L8.66666667,8.66666635 L7.33333333,8.66666635 L7.33333333,7.33333302 L8.66666667,7.33333302 Z M11.3333333,7.33333302 L11.3333333,8.66666635 L10,8.66666635 L10,7.33333302 L11.3333333,7.33333302 Z" id="shape"></path>
        </g>
    </g>
</svg>