<?xml version="1.0" encoding="UTF-8"?>
<svg width="20px" height="20px" viewBox="0 0 20 20" version="1.1" xmlns="http://www.w3.org/2000/svg" xmlns:xlink="http://www.w3.org/1999/xlink">
    <!-- Generator: sketchtool 62 (101010) - https://sketch.com -->
    <!-- <title>01FA94E7-E72D-42EC-8010-3F7EF2907CCA</title> -->
    <desc>Created with sketchtool.</desc>
    <g id="Asset-Artboard-Page" stroke="none" stroke-width="1" fill="none" fill-rule="evenodd">
        <g id="icons/24x24/ico_magnifier-icons/24x24/ico_driver" fill="#191919" fill-rule="nonzero">
            <path d="M11.6000005,5.60000022 L13.2000005,5.60000022 L13.2000005,6.80000027 C13.2000005,8.78822815 11.5882283,10.4000004 9.60000038,10.4000004 C7.6117725,10.4000004 6.00000024,8.78822815 6.00000024,6.80000027 L6.00000024,5.60000022 L7.6000003,5.60000022 L7.6000003,6.80000027 C7.6000003,7.90457251 8.49542814,8.80000035 9.60000038,8.80000035 C10.7045726,8.80000035 11.6000005,7.90457251 11.6000005,6.80000027 L11.6000005,5.60000022 Z M4.34131179,16.0042052 L2.8226886,15.5004355 L3.70391387,12.843968 C4.02798428,11.8621547 4.94516688,11.2003201 5.97880032,11.2003201 L13.2196007,11.2003201 C14.2553857,11.2003201 15.1749917,11.8634843 15.499714,12.8460404 L16.3773141,15.4916405 L14.8586876,15.9954002 L13.9808082,13.3489563 C13.8725965,13.0215261 13.5658515,12.8003202 13.2196007,12.8003202 L5.97880032,12.8003202 C5.63499385,12.8003202 5.33076607,13.0198495 5.22291184,13.346605 L4.34131179,16.0042052 Z M6.58177535,4.25040451 L7.13137104,4.80000019 L12.0686296,4.80000019 L12.6182254,4.25040443 L11.5093281,3.74606142 C10.6854927,3.37209568 10.1186341,3.20000013 9.60000034,3.20000013 C9.08136658,3.20000013 8.51450797,3.37209568 7.69120514,3.74581942 L6.58177535,4.25040451 Z M4.8687953,3.27178086 L7.02932803,2.28913882 C8.04491342,1.82813152 8.79634644,1.60000006 9.60000048,1.60000006 C10.4036545,1.60000006 11.1550875,1.82813152 12.1712055,2.28938082 L15.381776,3.74959581 L12.7313715,6.40000025 L6.46862945,6.40000025 L3.81822496,3.74959581 L4.8687953,3.27178086 Z M14.696158,17.6081462 L13.0961504,17.5918555 C13.0965638,17.5116491 13.0896867,17.3823337 13.0707778,17.2689914 C13.0616596,17.2143362 13.0520701,17.1820606 13.0627634,17.2005253 C12.3519579,15.971524 11.0443845,15.2000007 9.60008049,15.2000007 C8.15577644,15.2000007 6.84820309,15.971524 6.13717132,17.2009162 C6.14809085,17.1820606 6.13850137,17.2143362 6.12938321,17.2689914 C6.11047423,17.3823337 6.10359719,17.5116491 6.10402712,17.5937981 L4.50400294,17.6081462 L4.50400294,17.6021715 C4.50318348,17.436801 4.51437136,17.2264248 4.55119484,17.0057012 C4.58918851,16.7779632 4.64820258,16.5793377 4.75236297,16.3994763 C5.74618645,14.6811296 7.57847781,13.6000005 9.60008049,13.6000005 C11.6216832,13.6000005 13.4539745,14.6811296 14.4475718,16.3990854 C14.5519584,16.5793377 14.6109725,16.7779632 14.6489661,17.0057012 C14.6857896,17.2264248 14.6969775,17.436801 14.696158,17.6021715 L14.696158,17.6081462 Z M13.7554405,16.0000006 L13.7554405,17.6000007 L5.44424021,17.6000007 L5.44424021,16.0000006 L13.7554405,16.0000006 Z" id="shape"></path>
        </g>
    </g>
</svg>